<?xml version="1.0" encoding="utf-8"?>
<!-- Generator: Adobe Illustrator 22.0.0, SVG Export Plug-In . SVG Version: 6.00 Build 0)  -->
<svg version="1.1" id="Layer_1" xmlns="http://www.w3.org/2000/svg" xmlns:xlink="http://www.w3.org/1999/xlink" x="0px" y="0px"
	 viewBox="0 0 24 24" style="enable-background:new 0 0 24 24;" xml:space="preserve">
<style type="text/css">
	.st0{fill:#FFFFFF;}
</style>
<g>
	<path class="st0" d="M11.5,10c-1.8,0-3.2,1.4-3.2,3.2c0,1,0.5,1.9,1.3,2.5l0,0c0.3,0.4,0.9,0.9,1.3,1.2l0.5,0.4h0
		c0.1,0,0.2,0,0.2,0c0.1,0,0.2,0,0.2,0h0l0.5-0.3c0,0,0,0,0,0c0.8-0.6,1.5-1.4,1.5-1.4v0c0.6-0.6,1-1.4,1-2.3
		C14.7,11.4,13.3,10,11.5,10z"/>
	<path class="st0" d="M18.9,14.3l-0.5-1C17.3,12,17,9.2,17,9.2c0-3.9-2.5-7-5.5-7c-3,0-5.5,3.1-5.5,7l0,0c0,0-0.2,2.8-1.3,4.1
		l-0.5,1c0,0-0.7,1.5,0.4,2.8c0,0,1,2.4,4.2,4.6c0,0,0.5,0.2,0.5-0.4c0,0-0.6-1-1.2-2.4c-0.6-1-1-2.4-1-3.8c0-3.3,2-6,4.5-6
		s4.5,2.7,4.5,6c0,1.4-0.4,2.7-1,3.7c-0.6,1.4-1.2,2.5-1.2,2.5c-0.1,0.5,0.5,0.4,0.5,0.4c3.2-2.1,4.2-4.6,4.2-4.6
		C19.5,15.8,18.9,14.3,18.9,14.3z"/>
</g>
</svg>
