<?xml version="1.0" encoding="utf-8"?>
<!-- Generator: Adobe Illustrator 22.0.0, SVG Export Plug-In . SVG Version: 6.00 Build 0)  -->
<svg version="1.1" id="Layer_1" xmlns="http://www.w3.org/2000/svg" xmlns:xlink="http://www.w3.org/1999/xlink" x="0px" y="0px"
	 viewBox="0 0 24 24" style="enable-background:new 0 0 24 24;" xml:space="preserve">
<style type="text/css">
	.st0{fill:#FFFFFF;}
</style>
<path class="st0" d="M12.6,19v-3.5l0.5,0c1.9,0,4.5,1.6,4.5,1.6c-0.7-2.4-3.2-3.6-3.2-3.6c-0.1,0-0.1,0-0.1-0.1V4.3h0L11.9,2
	L9.6,4.3h0v9.1c0,0,0,0,0,0c-2.3,1.2-3.2,3.7-3.2,3.7c1.9-1.3,4-1.6,4.8-1.6V19c-0.5,0.3-0.9,0.8-0.9,1.4c0,0.9,0.7,1.6,1.6,1.6
	c0.9,0,1.6-0.7,1.6-1.6C13.4,19.8,13.1,19.3,12.6,19z"/>
</svg>
