<?xml version="1.0" encoding="utf-8"?>
<!-- Generator: Adobe Illustrator 22.0.0, SVG Export Plug-In . SVG Version: 6.00 Build 0)  -->
<svg version="1.1" id="Layer_1" xmlns="http://www.w3.org/2000/svg" xmlns:xlink="http://www.w3.org/1999/xlink" x="0px" y="0px"
	 viewBox="0 0 24 24" style="enable-background:new 0 0 24 24;" xml:space="preserve">
<style type="text/css">
	.st0{fill:#FFFFFF;}
</style>
<g>
	<path class="st0" d="M8.2,13.7L8.2,13.7c-3.4-2.4-1.3-9.9-1.3-9.9C-2,14,4.4,19,4.4,19l0,0c0.6,0.7,1.5,1.2,2.5,1.2
		c1.8,0,3.3-1.5,3.3-3.3C10.3,15.4,9.4,14.2,8.2,13.7z"/>
	<path class="st0" d="M17.1,3.9c0,0,2.1,7.5-1.3,9.9l0,0c-1.2,0.5-2.1,1.7-2.1,3.1c0,1.8,1.5,3.3,3.3,3.3c1,0,1.9-0.5,2.5-1.2l0,0
		C19.6,19,26,14.1,17.1,3.9z"/>
</g>
</svg>
