<?xml version="1.0" encoding="utf-8"?>
<!-- Generator: Adobe Illustrator 22.0.0, SVG Export Plug-In . SVG Version: 6.00 Build 0)  -->
<svg version="1.1" id="Layer_1" xmlns="http://www.w3.org/2000/svg" xmlns:xlink="http://www.w3.org/1999/xlink" x="0px" y="0px"
	 viewBox="0 0 24 24" style="enable-background:new 0 0 24 24;" xml:space="preserve">
<style type="text/css">
	.st0{fill:#FFFFFF;}
</style>
<path class="st0" d="M22,13.6c-0.8-2.3-4.5-3.2-4.5-3.2l1.8-1.9l-3.5,0c0-1.6,3.3-3.7,3.3-3.7c-2.4-0.7-4.4,1.6-4.4,1.6
	C14.3,5.7,15,4.2,15,4.2c-3.6,1.2-3.8,4.2-3.8,4.2c-2.6,0.4-4.8,2.7-4.8,2.7c-0.1,0.1-0.2,0.3-0.4,0.4l-4-1l2.3,5.5
	c0.1,1.4,0.8,2.3,0.8,2.3l0.2,0.2l0.3-1.7l1.8,0.6l-0.2-1.8l1.1,0.2l0.2-1l0.9,0.5l0.2-1.1l1,0l0.2,0.5l2.6,0.1c0,0,0.2,0.4,0.1,0.4
	c0,0-2.1,0.2-2.1,0.2l0.7,1.2l-2.1,0.3l0.1,0.7l-1.6-0.1l0.2,1.2l-2.2,0.2l0.1,0.7l0.9,0.9h1.7l1.8,1.2c1.1-1.3,1.3-3.7,1.3-3.7
	l3.1-0.9c2.4-0.5,4.5,1.8,4.5,1.8c0.4-2.6-1.4-4.8-1.4-4.8C19.4,13.4,22,13.6,22,13.6z"/>
</svg>
