<?xml version="1.0" encoding="utf-8"?>
<!-- Generator: Adobe Illustrator 22.0.0, SVG Export Plug-In . SVG Version: 6.00 Build 0)  -->
<svg version="1.1" id="Layer_1" xmlns="http://www.w3.org/2000/svg" xmlns:xlink="http://www.w3.org/1999/xlink" x="0px" y="0px"
	 viewBox="0 0 24 24" style="enable-background:new 0 0 24 24;" xml:space="preserve">
<style type="text/css">
	.st0{fill:#FFFFFF;}
</style>
<path class="st0" d="M18.9,11.2c-0.7-1.6-1.7-3-2.7-4.2c-0.5,3.5-1.7,3.5-1.7,3.5c0.4-2.5,0-4.3-0.6-5.6c-2.2-1.7-4.1-2.5-4.1-2.5
	c1.1,3.1-2.4,6.4-2.4,6.4c-3,3.2-2,7.8-2,7.8c2.2,7.4,9,4.7,9,4.7C21.4,18.6,18.9,11.2,18.9,11.2z M12.5,18.4c0,0-2.2,0.3-2.5-1.6
	c0,0-0.1-1.2,0.9-1.8c0,0,1.2-0.6,1-1.5c0,0,1.8,1,2.4,2.7C14.3,16.1,14.7,18.1,12.5,18.4z"/>
</svg>
