<?xml version="1.0" encoding="utf-8"?>
<!-- Generator: Adobe Illustrator 22.0.0, SVG Export Plug-In . SVG Version: 6.00 Build 0)  -->
<svg version="1.1" id="Layer_1" xmlns="http://www.w3.org/2000/svg" xmlns:xlink="http://www.w3.org/1999/xlink" x="0px" y="0px"
	 viewBox="0 0 24 24" style="enable-background:new 0 0 24 24;" xml:space="preserve">
<style type="text/css">
	.st0{fill:#FFFFFF;}
</style>
<g>
	<path class="st0" d="M21.6,12c0-5.4-4.4-9.8-9.8-9.8S2,6.6,2,12c0,5.4,4.4,9.8,9.8,9.8c1.9,0,3.7-0.5,5.2-1.5
		c-0.7,0.3-1.5,0.4-2.3,0.4c-3.5,0-6.4-2.9-6.4-6.4c0-3.5,2.9-6.4,6.4-6.4s6.4,2.9,6.4,6.4c0,0.3,0,0.7-0.1,1
		C21.4,14.3,21.6,13.2,21.6,12z"/>
	<circle class="st0" cx="14.8" cy="14.7" r="3"/>
</g>
</svg>
