<?xml version="1.0" encoding="utf-8"?>
<!-- Generator: Adobe Illustrator 22.0.0, SVG Export Plug-In . SVG Version: 6.00 Build 0)  -->
<svg version="1.1" id="Layer_1" xmlns="http://www.w3.org/2000/svg" xmlns:xlink="http://www.w3.org/1999/xlink" x="0px" y="0px"
	 viewBox="0 0 24 24" style="enable-background:new 0 0 24 24;" xml:space="preserve">
<style type="text/css">
	.st0{fill:#FFFFFF;}
</style>
<g id="XMLID_2_">
	<g>
		<polygon class="st0" points="21.9,10.9 21.9,12.9 17.6,12.9 20.4,15.7 19,17.1 15.2,13.3 15.2,13.3 14.8,12.9 13,12.9 13,14.7 
			13.4,15.1 17.1,18.9 15.7,20.3 13,17.5 13,22 11,22 11,17.5 8.2,20.3 6.8,18.8 10.6,15.1 11,14.7 11,12.9 9.1,12.9 8.7,13.3 
			4.9,17.1 3.5,15.7 6.3,12.9 2.1,12.9 2.1,10.9 6.3,10.9 3.6,8.2 5,6.8 8.7,10.5 9.1,10.9 11,10.9 11,9.2 10.5,8.7 10.6,8.7 6.8,5 
			8.2,3.6 11,6.4 11,2.2 13,2.2 13,6.3 15.7,3.6 17.1,5 13.4,8.8 13.4,8.8 13,9.1 13,10.9 14.8,10.9 15.2,10.5 15.2,10.5 19,6.8 
			20.4,8.2 17.6,10.9 		"/>
	</g>
	<g>
	</g>
</g>
</svg>
