<?xml version="1.0" encoding="utf-8"?>
<!-- Generator: Adobe Illustrator 22.0.0, SVG Export Plug-In . SVG Version: 6.00 Build 0)  -->
<svg version="1.1" id="Layer_1" xmlns="http://www.w3.org/2000/svg" xmlns:xlink="http://www.w3.org/1999/xlink" x="0px" y="0px"
	 viewBox="0 0 24 24" style="enable-background:new 0 0 24 24;" xml:space="preserve">
<style type="text/css">
	.st0{fill:#FFFFFF;}
</style>
<g>
	<path class="st0" d="M21.7,12.7l-0.9-0.2c0,0,0.2-0.7-0.1-1.1c0-0.1-0.1-0.1-0.2-0.1L8.7,3.8L7.3,5.9l6.6,4.3l-1.3,2l3.3,2.2
		l0.7-1.1c0,0,1.2,0.5,0.8,2l-1.4,1.4c0,0-1.3,1.3-0.2,2l1.5,1c0,0,1,0.7,1.6-0.2c0,0,1.8-2.1,1.4-4.9l0.3-1l0.7-0.1l0.6-0.1
		L21.7,12.7z"/>
	<polygon class="st0" points="16.7,6.2 15.3,4 13.1,5.4 15.5,6.9 	"/>
	<path class="st0" d="M9.1,8l-5.5,3.6c-0.1,0-0.2,0.1-0.2,0.1c-0.3,0.4-0.1,1.1-0.1,1.1L2.3,13L2,13.7l0.6,0.1L3.3,14l0.3,1
		C3.2,17.7,5,19.8,5,19.8C5.6,20.7,6.6,20,6.6,20l1.5-1c1.1-0.8-0.2-2-0.2-2l-1.4-1.4c-0.5-1.5,0.8-2,0.8-2L8,14.6l3.3-2.2l-1.3-2
		l1.4-0.9L9.1,8z"/>
</g>
</svg>
