<?xml version="1.0" encoding="utf-8"?>
<!-- Generator: Adobe Illustrator 22.0.0, SVG Export Plug-In . SVG Version: 6.00 Build 0)  -->
<svg version="1.1" id="Layer_1" xmlns="http://www.w3.org/2000/svg" xmlns:xlink="http://www.w3.org/1999/xlink" x="0px" y="0px"
	 viewBox="0 0 24 24" style="enable-background:new 0 0 24 24;" xml:space="preserve">
<style type="text/css">
	.st0{fill:#FFFFFF;}
</style>
<g>
	<path class="st0" d="M11.5,7.3L6,10v5.3l5.5,2.7l5.5-2.7V10L11.5,7.3z M8,14.6l-1-0.5v-2.9l1-0.4V14.6z M10.9,15.8L9.1,15v-4.6
		l1.7-0.7V15.8z M14,14.9l-1.7,0.8V9.6l1.7,0.7V14.9z M16.1,14l-1,0.5v-3.9l1,0.4V14z"/>
	<polygon class="st0" points="6,16.5 6,19.3 11.5,22 17,19.3 17,16.5 11.5,19.2 	"/>
	<path class="st0" d="M16.8,8.7c-0.2-2.1-1.9-3.8-4.1-4.2L11.5,2l-1.2,2.4C8,4.9,6.3,6.6,6.2,8.7l5.4-2.6L16.8,8.7z"/>
</g>
</svg>
