<?xml version="1.0" encoding="utf-8"?>
<!-- Generator: Adobe Illustrator 22.0.0, SVG Export Plug-In . SVG Version: 6.00 Build 0)  -->
<svg version="1.1" id="Layer_1" xmlns="http://www.w3.org/2000/svg" xmlns:xlink="http://www.w3.org/1999/xlink" x="0px" y="0px"
	 viewBox="0 0 24 24" style="enable-background:new 0 0 24 24;" xml:space="preserve">
<style type="text/css">
	.st0{fill:#FFFFFF;}
</style>
<g>
	<polygon class="st0" points="4.6,17.2 5.6,17.2 4.7,15.3 3.8,15.3 7.7,4.2 16.4,4.2 20.2,15.3 19.3,15.3 18.6,17.2 19.6,17.2 
		20,16.2 21.5,16.2 17.1,3.3 12.8,3.2 12.1,4 11.3,3.2 7.2,3.2 2.6,16.2 4.1,16.2 	"/>
	<polygon class="st0" points="8.3,4.8 5.1,14.4 6.2,17.1 9.4,17.1 12,13.6 14.8,17.2 17.9,17.1 19,14.4 15.8,4.8 	"/>
	<path class="st0" d="M21.7,16.9l-1.1,0l-0.5,0.8l-7.6,0.1L12,17.3l-0.5,0.7l0.7,0.7h5.9l-0.5,1.2h-11L6,18.6h4.2l1.8-2.3l0.8,0.9
		H14l-2-2.5l-2.3,3l-5.8-0.1l-0.3-0.8l-1.2,0L2,17.7h1l0.4,0.9h2.4l0.6,1.3l0,0v0h1.4l0.4,0.8v0h0l0,0l0,0h7.8v0l0,0l0.4-0.8h1.4v0
		l0,0l0.6-1.3h2.4l0.4-0.8l0.8,0L21.7,16.9z M15.8,20.6H8.3L8,19.9h8.1L15.8,20.6z"/>
</g>
</svg>
