<?xml version="1.0" encoding="utf-8"?>
<!-- Generator: Adobe Illustrator 22.0.0, SVG Export Plug-In . SVG Version: 6.00 Build 0)  -->
<svg version="1.1" id="Layer_1" xmlns="http://www.w3.org/2000/svg" xmlns:xlink="http://www.w3.org/1999/xlink" x="0px" y="0px"
	 viewBox="0 0 24 24" style="enable-background:new 0 0 24 24;" xml:space="preserve">
<style type="text/css">
	.st0{fill:#FFFFFF;}
</style>
<path class="st0" d="M22,20.4c-0.2-3.8-2.5-6.9-5.8-8.5c1-1,1.6-2.4,1.6-4c0-3.2-2.6-5.8-5.8-5.8S6.2,4.8,6.2,8c0,1.5,0.6,2.9,1.6,4
	c-3.2,1.5-5.5,4.7-5.8,8.5h10V3.7c0.1,0,0.1,0,0.2,0c2.6,0,4.6,2.1,4.6,4.6c0,2.2-1.5,4-3.6,4.5c3.6,0.1,6.5,3.1,6.5,6.8
	c0,0.3,0,0.5,0,0.8H22z"/>
</svg>
