<?xml version="1.0" encoding="utf-8"?>
<!-- Generator: Adobe Illustrator 22.0.0, SVG Export Plug-In . SVG Version: 6.00 Build 0)  -->
<svg version="1.1" id="Layer_1" xmlns="http://www.w3.org/2000/svg" xmlns:xlink="http://www.w3.org/1999/xlink" x="0px" y="0px"
	 viewBox="0 0 24 24" style="enable-background:new 0 0 24 24;" xml:space="preserve">
<style type="text/css">
	.st0{fill:#FFFFFF;}
</style>
<path class="st0" d="M14.2,12.8c0,0-2.6-0.6-1.3-1.8l0.1-0.1c2.3-0.1,4.2-2.1,4.2-4.4c0-2.4-2-4.4-4.4-4.4c-2.4,0-4.4,1.9-4.4,4.3
	l-0.1,0c0,0-4.9,7.5,0.7,11.5c0,0,2.5,1.5,5-0.5c0,0,1.8-0.8,2.7,0.4c0,0,0.4,1.4-0.3,2.5c0,0-1.5,1.5-2.7,1.5c0,0,1.8,0.5,3.2,0.3
	c0.5-0.1,0.9-0.3,1.3-0.6C18.2,21.3,23.8,14.4,14.2,12.8z M14,7.4c0.6-0.5,1.3-0.7,1.5-0.5c0.2,0.3-0.1,0.9-0.7,1.4
	c-0.6,0.5-1.3,0.7-1.5,0.5C13.1,8.5,13.4,7.9,14,7.4z M11.9,5.7c-0.2,0.8-0.8,1.3-1.2,1.1c-0.4-0.1-0.6-0.9-0.3-1.6
	c0.2-0.8,0.8-1.3,1.2-1.1C12,4.2,12.1,4.9,11.9,5.7z"/>
</svg>
