<?xml version="1.0" encoding="utf-8"?>
<!-- Generator: Adobe Illustrator 22.0.0, SVG Export Plug-In . SVG Version: 6.00 Build 0)  -->
<svg version="1.1" id="Layer_1" xmlns="http://www.w3.org/2000/svg" xmlns:xlink="http://www.w3.org/1999/xlink" x="0px" y="0px"
	 viewBox="0 0 24 24" style="enable-background:new 0 0 24 24;" xml:space="preserve">
<style type="text/css">
	.st0{fill:#FFFFFF;}
</style>
<path class="st0" d="M17.5,12.4l-1,2.1l-1.6,1.3l-3.3,0.1v-1.4h3.7c0,0-3.4-4.4-0.3-10.7l0.1-0.6L11.6,4V3.1H11v1.1L8.6,4.8
	c0,0-4,3.8,0.2,9.7H11v1.4l-2.1,0l-2.5-1.4L2,13.9c0,0,1.7,5.4,5.1,5.9c0,0,5.7,1.2,11.2-0.7l1-3l1.5-0.2l1.2-4L17.5,12.4z"/>
</svg>
