<?xml version="1.0" encoding="utf-8"?>
<!-- Generator: Adobe Illustrator 22.0.0, SVG Export Plug-In . SVG Version: 6.00 Build 0)  -->
<svg version="1.1" id="Layer_1" xmlns="http://www.w3.org/2000/svg" xmlns:xlink="http://www.w3.org/1999/xlink" x="0px" y="0px"
	 viewBox="0 0 24 24" style="enable-background:new 0 0 24 24;" xml:space="preserve">
<style type="text/css">
	.st0{fill:#FFFFFF;}
</style>
<path class="st0" d="M18.4,10.8L22,7.1l-5.1-0.3l0.6,1.5l-1,0.4c-0.3-0.8-0.8-1.5-1.5-2c0,0-2.4-2.2-9.4-2.6c0,0,2.6,0.4,5,1.8
	L2,14.4l0.5,0.5l0,0l0,0l0,0l0,0l11.1,1.3c-0.5,1.3-1.3,2.6-2.5,4c0,0,3.8-1.9,5.6-7.6c0,0,0.2-1.4,0-2.9l1.1-0.4L18.4,10.8z
	 M14,8.9c0,0,0.1,0.2,0.2,0.7l-9.8,3.6l6.9-6.9C12.4,6.9,13.3,7.8,14,8.9z M14,15.6l-9.6-1.2l10.1-3.7C14.7,11.9,14.7,13.6,14,15.6z
	"/>
</svg>
