<?xml version="1.0" encoding="utf-8"?>
<!-- Generator: Adobe Illustrator 22.0.0, SVG Export Plug-In . SVG Version: 6.00 Build 0)  -->
<svg version="1.1" id="Layer_1" xmlns="http://www.w3.org/2000/svg" xmlns:xlink="http://www.w3.org/1999/xlink" x="0px" y="0px"
	 viewBox="0 0 24 24" style="enable-background:new 0 0 24 24;" xml:space="preserve">
<style type="text/css">
	.st0{fill:#FFFFFF;}
</style>
<g>
	<rect x="20.5" y="11.6" class="st0" width="1.5" height="3.8"/>
	<rect x="2.1" y="11.6" class="st0" width="1.5" height="3.8"/>
	<path class="st0" d="M6.8,5.2l-2.5,6.1v7.4h15.3v-7.4l-2.2-6.1L6.8,5.2z M15.2,7.8c0.6,0,1.1,0.5,1.1,1.1c0,0.6-0.5,1.1-1.1,1.1
		c-0.6,0-1.1-0.5-1.1-1.1C14.1,8.3,14.6,7.8,15.2,7.8z M8.9,7.8c0.6,0,1.1,0.5,1.1,1.1C10,9.5,9.5,10,8.9,10c-0.6,0-1.1-0.5-1.1-1.1
		C7.8,8.3,8.3,7.8,8.9,7.8z M16.8,16.4H7.3v-2.7h9.5V16.4z"/>
</g>
</svg>
