<?xml version="1.0" encoding="utf-8"?>
<!-- Generator: Adobe Illustrator 22.0.0, SVG Export Plug-In . SVG Version: 6.00 Build 0)  -->
<svg version="1.1" id="Layer_1" xmlns="http://www.w3.org/2000/svg" xmlns:xlink="http://www.w3.org/1999/xlink" x="0px" y="0px"
	 viewBox="0 0 24 24" style="enable-background:new 0 0 24 24;" xml:space="preserve">
<style type="text/css">
	.st0{fill:#FFFFFF;}
</style>
<g>
	<path class="st0" d="M14,5.3c0,0-6-0.9-6.3,4.2c0,0-0.2,1.7,1.3,3.3c0,0,0.8,0.7,2.2,0.8c0,0,0.8,0.1,0.6-0.5c0,0-2-1.3-0.7-3.1
		c0,0,2.3-3,5.3,0.2c0,0,4.7,5.4-2.1,9.7c0,0-5.3,1.3-10.1-2c0,0,1,1.8,3.1,3.1c0,0,3.6,1.7,7.8,0.7c0,0,5.7-0.9,5.9-8.4
		C21,13.3,21.4,6,14,5.3z"/>
	<path class="st0" d="M10,18.7c0,0,6,0.9,6.3-4.2c0,0,0.2-1.7-1.3-3.3c0,0-0.8-0.7-2.2-0.8c0,0-0.8-0.1-0.6,0.5c0,0,2,1.3,0.7,3.1
		c0,0-2.3,3-5.3-0.2c0,0-4.7-5.4,2.1-9.7c0,0,5.3-1.3,10.1,2c0,0-1-1.8-3.1-3.1c0,0-3.6-1.7-7.8-0.7c0,0-5.7,0.9-5.9,8.4
		C3,10.7,2.6,18,10,18.7z"/>
</g>
</svg>
