<?xml version="1.0" encoding="utf-8"?>
<!-- Generator: Adobe Illustrator 22.0.0, SVG Export Plug-In . SVG Version: 6.00 Build 0)  -->
<svg version="1.1" id="Layer_1" xmlns="http://www.w3.org/2000/svg" xmlns:xlink="http://www.w3.org/1999/xlink" x="0px" y="0px"
	 viewBox="0 0 24 24" style="enable-background:new 0 0 24 24;" xml:space="preserve">
<style type="text/css">
	.st0{fill:#FFFFFF;}
</style>
<g>
	<path class="st0" d="M6.5,8.6c1,0.4,2.4-0.7,3.1-2.4c0.7-1.7,0.5-3.5-0.5-3.9C8.1,1.9,6.7,2.9,6,4.7C5.3,6.4,5.5,8.2,6.5,8.6z"/>
	<ellipse transform="matrix(0.5544 -0.8323 0.8323 0.5544 1.825 13.465)" class="st0" cx="13.5" cy="5" rx="2.7" ry="1.9"/>
	<path class="st0" d="M19.1,10.1c1.2-0.9,1.6-2.4,0.9-3.2c-0.7-0.8-2.1-0.8-3.3,0.2c-1.2,0.9-1.6,2.4-0.9,3.2
		C16.5,11.1,18,11,19.1,10.1z"/>
	<path class="st0" d="M21.8,12.7c-0.5-0.9-2-1.1-3.3-0.3s-1.9,2.1-1.4,3s2,1.1,3.3,0.3C21.7,15,22.3,13.6,21.8,12.7z"/>
	<path class="st0" d="M14.9,18.1C14.9,18.1,14.9,18.1,14.9,18.1c-0.1-0.1-0.1-0.2-0.1-0.2c-0.3-0.7-0.5-1.8-0.5-2.7c0,0,0,0,0,0
		c-0.1-1.1-0.1-2-0.1-2l0,0c0-0.2,0.1-0.4,0.1-0.6c0-2-1.6-3.6-3.6-3.6c-1,0-1.8,0.4-2.5,1l0,0c0,0-1.6,0.7-2.9,0.6
		c-0.1,0-0.3-0.1-0.4-0.1c0,0,0,0,0,0l0,0c-0.1,0-0.1,0-0.2,0c-1.5,0-2.7,1.2-2.7,2.7c0,1.1,0.6,2,1.6,2.4l0,0c0,0,5.6,3,6.5,4.8
		l0,0c0.5,0.9,1.4,1.5,2.4,1.5c1.5,0,2.7-1.2,2.7-2.7C15.2,18.8,15.1,18.5,14.9,18.1L14.9,18.1z"/>
</g>
</svg>
