<?xml version="1.0" encoding="utf-8"?>
<!-- Generator: Adobe Illustrator 22.0.0, SVG Export Plug-In . SVG Version: 6.00 Build 0)  -->
<svg version="1.1" id="Layer_1" xmlns="http://www.w3.org/2000/svg" xmlns:xlink="http://www.w3.org/1999/xlink" x="0px" y="0px"
	 viewBox="0 0 24 24" style="enable-background:new 0 0 24 24;" xml:space="preserve">
<style type="text/css">
	.st0{fill:#FFFFFF;}
</style>
<path class="st0" d="M22,4.4l-6.2,1.1c-3-2.2-5.7-1.6-7.9,0L2,4.4l1.4,6.5C2.5,12.5,2,13.7,2,13.7c3.7,6.2,10,6.5,10,6.5
	c6.8-0.4,10-7,10-7c-0.5-0.9-0.9-1.7-1.4-2.4L22,4.4z M5.3,11.9c0-1.6,1.4-2.3,1.4-2.3c2.1-0.6,2.6,0.6,2.6,0.6
	c-1,0.1-2.1,0.5-2.1,0.5C6,11.1,5.3,11.9,5.3,11.9z M11.8,16.4c0,0-2.4-0.1-3.3-2.3c0,0,1.4,0.6,3.3,0.6c0,0,1.9-0.1,3.2-0.6
	C15.1,14.1,15,16,11.8,16.4z M16.8,10.6c0,0-1.2-0.5-2.1-0.5c0,0,0.5-1.2,2.6-0.6c0,0,1.4,0.7,1.4,2.3C18.7,11.9,18,11.1,16.8,10.6z
	"/>
</svg>
